#!OML:ASF E:\Mandelcareful walks\Project 1\Capture day 1\Session 1\Subject1.ASF
:FULLY-SPECIFIED
:DEGREES
597
root 0.176141 16.0243 1.25527 -424.123 92.5891 -432.501
lowerback 29.9708 0.347724 -1.65604
upperback 6.80621 0.567885 -0.226966
thorax -8.81867 0.564414 0.454971
lowerneck -26.4106 0.930227 -2.50142
upperneck 19.3317 3.03205 -2.87345
head 10.5699 0.830314 -0.134259
rclavicle -1.49089e-014 -2.22639e-014
rhumerus -16.2526 4.9541 -81.2112
rradius 49.5217
rwrist -18.9541
rhand -14.1226 -27.2708
rfingers 7.12502
rthumb 12.0109 -56.9062
lclavicle -1.49089e-014 -2.22639e-014
lhumerus -15.1445 -10.7395 88.2862
lradius 40.0447
lwrist 17.9938
lhand -22.8869 -12.8633
lfingers 7.12502
lthumb 3.55233 17.0869
rfemur -34.2686 -10.3753 12.6348
rtibia 48.5115
rfoot -19.6661 -3.88841
rtoes -1.67049
lfemur -30.0876 8.54877 -16.2443
ltibia 50.3451
lfoot -24.2541 -0.78917
ltoes 3.80278
598
root 0.174349 16.0247 1.25409 -424.787 92.5622 -433.14
lowerback 29.9904 0.353211 -1.64976
upperback 6.81432 0.577396 -0.226582
thorax -8.81913 0.569072 0.448157
lowerneck -26.5283 0.930889 -2.58139
upperneck 19.5436 3.04784 -2.75349
head 10.6649 0.840463 -0.0745854
rclavicle 1.78906e-015 1.78906e-015
rhumerus -16.2012 5.07031 -81.1955
rradius 49.4999
rwrist -19.0762
rhand -14.129 -27.2247
rfingers 7.12502
rthumb 12.0047 -56.8604
lclavicle 1.78906e-015 1.78906e-015
lhumerus -15.089 -10.7099 88.2386
lradius 39.9702
lwrist 17.9112
lhand -22.8951 -13.1666
lfingers 7.12502
lthumb 3.54441 16.7836
rfemur -34.2471 -10.3469 12.6466
rtibia 48.4865
rfoot -19.6442 -3.89484
rtoes -1.87309
lfemur -30.0673 8.54675 -16.2232
ltibia 50.3633
lfoot -24.2919 -0.669402
ltoes 3.96837
599
root 0.17293 16.0241 1.25237 -425.707 92.5813 -434.041
lowerback 29.9821 0.358052 -1.70448
upperback 6.82307 0.56888 -0.217579
thorax -8.80514 0.566252 0.493198
lowerneck -26.6259 0.919615 -2.6616
upperneck 19.7896 3.0605 -2.67712
head 10.7704 0.843241 -0.0308953
rclavicle 2.38542e-015 -6.75868e-015
rhumerus -16.0497 5.17515 -81.1715
rradius 49.3339
rwrist -19.076
rhand -14.2227 -27.0239
rfingers 7.12502
rthumb 11.9143 -56.6649
lclavicle 2.38542e-015 -6.75868e-015
lhumerus -15.0803 -10.6342 88.2256
lradius 39.9536
lwrist 17.8756
lhand -23.0452 -13.3194
lfingers 7.12502
lthumb 3.39947 16.6332
rfemur -34.2334 -10.3366 12.6057
rtibia 48.4732
rfoot -19.6228 -3.89498
rtoes -1.89013
lfemur -30.0387 8.55661 -16.2591
ltibia 50.3861
lfoot -24.3066 -0.724872
ltoes 3.73734
600
root 0.172254 16.0231 1.25159 -425.479 92.5071 -433.789
lowerback 29.9786 0.334992 -1.7046
upperback 6.82629 0.546091 -0.155488
thorax -8.79989 0.555737 0.571539
lowerneck -26.7822 0.925912 -2.65567
upperneck 20.1179 3.11709 -2.76975
head 10.9229 0.848368 -0.0547255
rclavicle 4.17448e-015 0
rhumerus -15.9579 5.26752 -81.1574
rradius 49.2272
rwrist -18.9708
rhand -14.1939 -26.9741
rfingers 7.12502
rthumb 11.9421 -56.6135
lclavicle 4.17448e-015 0
lhumerus -15.0755 -10.3821 88.2244
lradius 39.944
lwrist 17.7669
lhand -22.9233 -13.3671
lfingers 7.12502
lthumb 3.51715 16.5836
rfemur -34.2047 -10.2927 12.6789
rtibia 48.4652
rfoot -19.6397 -3.90462
rtoes -1.61055
lfemur -30.0103 8.59181 -16.1803
ltibia 50.4068
lfoot -24.353 -0.878957
ltoes 4.25049
601
root 0.171627 16.0234 1.2514 -424.717 92.4067 -432.982
lowerback 29.9926 0.304938 -1.66367
upperback 6.82979 0.527818 -0.0841581
thorax -8.80283 0.546838 0.634717
lowerneck -26.8885 0.955267 -2.58176
upperneck 20.4192 3.2068 -2.97195
head 11.0613 0.860732 -0.124437
rclavicle -1.59028e-015 3.18055e-015
rhumerus -16.0199 5.35472 -81.1316
rradius 49.2514
rwrist -18.9477
rhand -14.1654 -27.0662
rfingers 7.12502
rthumb 11.9696 -56.704
lclavicle -1.59028e-015 3.18055e-015
lhumerus -15.0688 -10.108 88.2423
lradius 39.8764
lwrist 17.6528
lhand -22.6441 -13.1185
lfingers 7.12502
lthumb 3.78681 16.8276
rfemur -34.135 -10.242 12.7831
rtibia 48.4555
rfoot -19.6707 -3.89724
rtoes -1.37024
lfemur -29.964 8.6005 -16.0596
ltibia 50.4204
lfoot -24.3725 -0.892547
ltoes 4.59879
